<svg xmlns="http://www.w3.org/2000/svg" width="1024" height="1024" viewBox="0 0 1024 1024"><defs><mask id="cut" maskUnits="userSpaceOnUse" x="0" y="0" width="1024" height="1024"><rect width="1024" height="1024" fill="#FFFFFF"/><g transform="translate(480.2 543.8) rotate(45)" fill="none" stroke-linecap="round" stroke-linejoin="round"><path d="M0 0 C -147 -85 -147 -240 0 -355 C 147 -240 147 -85 0 0 Z" stroke="#000000" stroke-width="22"/><path d="M0 -34 L0 -300" stroke="#000000" stroke-width="17"/><path d="M0 -110 L-56 -160 M0 -110 L56 -160 M0 -190 L-45 -232 M0 -190 L45 -232" stroke="#000000" stroke-width="13"/></g><circle cx="480.2" cy="543.8" r="58" fill="none" stroke="#000000" stroke-width="14"/></mask></defs><g mask="url(#cut)"><circle cx="480.2" cy="543.8" r="233.0" fill="none" stroke="#FFFFFF" stroke-width="64"/><path d="M480.2 543.8 L247.2 543.8 M480.2 543.8 L480.2 776.8" stroke="#FFFFFF" stroke-width="44" fill="none"/><g transform="translate(480.2 543.8) rotate(45)"><path id="blade" d="M0 0 C -147 -85 -147 -240 0 -355 C 147 -240 147 -85 0 0 Z" fill="#FFFFFF"/></g></g><circle cx="480.2" cy="543.8" r="52" fill="#FFFFFF"/></svg>
